<svg width="552" height="404" viewBox="0 0 552 404" fill="none" xmlns="http://www.w3.org/2000/svg">
<circle cx="278.5" cy="183.5" r="132.5" stroke="#286F6C" stroke-opacity="0.8" stroke-width="20"/>
<circle cx="278.5" cy="183.5" r="177.5" stroke="#F26440" stroke-opacity="0.6" stroke-width="4"/>
<g filter="url(#filter0_bd_46_110)">
<rect x="41" y="16" width="241" height="83" rx="41.5" fill="white" shape-rendering="crispEdges"/>
<rect x="76" y="41" width="36" height="33" rx="16.5" fill="#F26440" fill-opacity="0.4"/>
<path d="M91.5 60.2325L88.207 56.9395L86.793 58.3535L91.5 63.0605L101.207 53.3535L99.793 51.9395L91.5 60.2325Z" fill="#F26440"/>
<path d="M142.606 63.162C140.914 63.162 139.618 62.718 138.718 61.83C137.83 60.93 137.386 59.616 137.386 57.888V51.12C137.386 50.496 137.698 50.184 138.322 50.184C138.946 50.184 139.258 50.496 139.258 51.12V57.852C139.258 60.312 140.374 61.542 142.606 61.542C144.838 61.542 145.954 60.312 145.954 57.852V51.12C145.954 50.496 146.26 50.184 146.872 50.184C147.484 50.184 147.79 50.496 147.79 51.12V57.888C147.79 59.616 147.352 60.93 146.476 61.83C145.6 62.718 144.31 63.162 142.606 63.162ZM154.097 63.162C153.569 63.162 153.023 63.102 152.459 62.982C151.895 62.862 151.385 62.658 150.929 62.37C150.725 62.25 150.599 62.1 150.551 61.92C150.503 61.74 150.515 61.572 150.587 61.416C150.659 61.26 150.773 61.152 150.929 61.092C151.097 61.02 151.283 61.038 151.487 61.146C151.955 61.398 152.405 61.578 152.837 61.686C153.269 61.794 153.695 61.848 154.115 61.848C154.751 61.848 155.231 61.734 155.555 61.506C155.879 61.278 156.041 60.972 156.041 60.588C156.041 60.276 155.933 60.036 155.717 59.868C155.501 59.688 155.177 59.55 154.745 59.454L153.035 59.112C151.523 58.8 150.767 58.02 150.767 56.772C150.767 55.944 151.097 55.284 151.757 54.792C152.417 54.3 153.281 54.054 154.349 54.054C155.429 54.054 156.359 54.318 157.139 54.846C157.331 54.966 157.445 55.116 157.481 55.296C157.517 55.464 157.493 55.626 157.409 55.782C157.325 55.926 157.199 56.028 157.031 56.088C156.875 56.148 156.689 56.124 156.473 56.016C156.113 55.8 155.753 55.644 155.393 55.548C155.033 55.44 154.685 55.386 154.349 55.386C153.725 55.386 153.251 55.506 152.927 55.746C152.603 55.974 152.441 56.286 152.441 56.682C152.441 57.282 152.837 57.666 153.629 57.834L155.339 58.176C156.119 58.332 156.707 58.596 157.103 58.968C157.511 59.34 157.715 59.844 157.715 60.48C157.715 61.32 157.385 61.98 156.725 62.46C156.065 62.928 155.189 63.162 154.097 63.162ZM164.4 63.162C162.96 63.162 161.826 62.76 160.998 61.956C160.17 61.14 159.756 60.03 159.756 58.626C159.756 57.726 159.936 56.934 160.296 56.25C160.668 55.554 161.178 55.014 161.826 54.63C162.474 54.246 163.218 54.054 164.058 54.054C165.27 54.054 166.224 54.444 166.92 55.224C167.616 55.992 167.964 57.054 167.964 58.41C167.964 58.818 167.724 59.022 167.244 59.022H161.52C161.652 60.846 162.618 61.758 164.418 61.758C164.778 61.758 165.156 61.716 165.552 61.632C165.948 61.536 166.332 61.368 166.704 61.128C166.956 60.984 167.172 60.936 167.352 60.984C167.544 61.02 167.682 61.122 167.766 61.29C167.85 61.446 167.862 61.626 167.802 61.83C167.754 62.022 167.616 62.19 167.388 62.334C166.98 62.61 166.5 62.82 165.948 62.964C165.408 63.096 164.892 63.162 164.4 63.162ZM164.13 55.332C163.374 55.332 162.774 55.566 162.33 56.034C161.886 56.502 161.616 57.126 161.52 57.906H166.434C166.398 57.09 166.182 56.46 165.786 56.016C165.39 55.56 164.838 55.332 164.13 55.332ZM171.908 63.126C171.296 63.126 170.99 62.82 170.99 62.208V55.62H169.982C169.49 55.62 169.244 55.386 169.244 54.918C169.244 54.45 169.49 54.216 169.982 54.216H170.99V54.054C170.99 52.866 171.284 51.972 171.872 51.372C172.46 50.76 173.318 50.4 174.446 50.292L175.004 50.256C175.256 50.232 175.442 50.286 175.562 50.418C175.694 50.538 175.76 50.694 175.76 50.886C175.76 51.066 175.712 51.228 175.616 51.372C175.52 51.516 175.376 51.6 175.184 51.624L174.842 51.642C174.134 51.69 173.618 51.888 173.294 52.236C172.97 52.584 172.808 53.106 172.808 53.802V54.216H174.554C175.058 54.216 175.31 54.45 175.31 54.918C175.31 55.386 175.058 55.62 174.554 55.62H172.808V62.208C172.808 62.82 172.508 63.126 171.908 63.126ZM180.381 63.162C178.257 63.162 177.195 61.98 177.195 59.616V55.008C177.195 54.396 177.495 54.09 178.095 54.09C178.707 54.09 179.013 54.396 179.013 55.008V59.634C179.013 60.342 179.157 60.864 179.445 61.2C179.733 61.536 180.189 61.704 180.813 61.704C181.497 61.704 182.049 61.476 182.469 61.02C182.901 60.564 183.117 59.952 183.117 59.184V55.008C183.117 54.396 183.423 54.09 184.035 54.09C184.635 54.09 184.935 54.396 184.935 55.008V62.208C184.935 62.82 184.641 63.126 184.053 63.126C183.465 63.126 183.171 62.82 183.171 62.208V61.596C182.883 62.112 182.499 62.502 182.019 62.766C181.539 63.03 180.993 63.162 180.381 63.162ZM190.863 63.162C189.927 63.162 189.219 62.892 188.739 62.352C188.271 61.812 188.037 61.02 188.037 59.976V51.102C188.037 50.49 188.337 50.184 188.937 50.184C189.549 50.184 189.855 50.49 189.855 51.102V59.868C189.855 61.056 190.335 61.65 191.295 61.65C191.403 61.65 191.499 61.644 191.583 61.632C191.667 61.62 191.751 61.614 191.835 61.614C191.979 61.602 192.081 61.644 192.141 61.74C192.201 61.824 192.231 62.004 192.231 62.28C192.231 62.772 192.003 63.054 191.547 63.126C191.427 63.138 191.307 63.144 191.187 63.144C191.079 63.156 190.971 63.162 190.863 63.162Z" fill="black" fill-opacity="0.8"/>
<rect x="41.5" y="16.5" width="240" height="82" rx="41" stroke="#F26440" shape-rendering="crispEdges"/>
</g>
<g filter="url(#filter1_bd_46_110)">
<rect x="20" y="297" width="262" height="83" rx="41.5" fill="white" shape-rendering="crispEdges"/>
<rect x="55" y="322" width="36" height="33" rx="16.5" fill="#F26440" fill-opacity="0.4"/>
<path d="M70.5 341.232L67.207 337.939L65.793 339.353L70.5 344.06L80.207 334.353L78.793 332.939L70.5 341.232Z" fill="#F26440"/>
<path d="M117.484 344C116.812 344 116.476 343.664 116.476 342.992V332.318C116.476 331.646 116.812 331.31 117.484 331.31H124.054C124.57 331.31 124.828 331.556 124.828 332.048C124.828 332.564 124.57 332.822 124.054 332.822H118.276V336.8H123.658C124.174 336.8 124.432 337.052 124.432 337.556C124.432 338.06 124.174 338.312 123.658 338.312H118.276V342.488H124.054C124.57 342.488 124.828 342.74 124.828 343.244C124.828 343.748 124.57 344 124.054 344H117.484ZM127.724 344.108C127.4 344.108 127.166 343.976 127.022 343.712C126.89 343.448 126.956 343.148 127.22 342.812L129.92 339.464L127.418 336.368C127.142 336.044 127.076 335.75 127.22 335.486C127.364 335.222 127.592 335.09 127.904 335.09C128.132 335.09 128.318 335.132 128.462 335.216C128.618 335.288 128.762 335.414 128.894 335.594L130.964 338.222L133.052 335.594C133.184 335.414 133.322 335.288 133.466 335.216C133.61 335.132 133.796 335.09 134.024 335.09C134.336 335.09 134.564 335.222 134.708 335.486C134.852 335.75 134.786 336.05 134.51 336.386L132.008 339.482L134.708 342.812C134.972 343.136 135.032 343.436 134.888 343.712C134.756 343.976 134.528 344.108 134.204 344.108C133.808 344.108 133.478 343.94 133.214 343.604L130.946 340.76L128.696 343.604C128.564 343.772 128.426 343.898 128.282 343.982C128.138 344.066 127.952 344.108 127.724 344.108ZM138.473 347.366C137.873 347.366 137.573 347.06 137.573 346.448V336.008C137.573 335.396 137.867 335.09 138.455 335.09C139.055 335.09 139.355 335.396 139.355 336.008V336.692C139.619 336.188 140.009 335.792 140.525 335.504C141.041 335.204 141.629 335.054 142.289 335.054C143.069 335.054 143.747 335.24 144.323 335.612C144.911 335.984 145.361 336.512 145.673 337.196C145.997 337.868 146.159 338.672 146.159 339.608C146.159 340.544 145.997 341.354 145.673 342.038C145.361 342.722 144.911 343.25 144.323 343.622C143.747 343.982 143.069 344.162 142.289 344.162C141.641 344.162 141.059 344.024 140.543 343.748C140.039 343.46 139.655 343.07 139.391 342.578V346.448C139.391 347.06 139.085 347.366 138.473 347.366ZM141.839 342.758C142.595 342.758 143.195 342.488 143.639 341.948C144.095 341.408 144.323 340.628 144.323 339.608C144.323 338.588 144.095 337.814 143.639 337.286C143.195 336.746 142.595 336.476 141.839 336.476C141.083 336.476 140.477 336.746 140.021 337.286C139.577 337.814 139.355 338.588 139.355 339.608C139.355 340.628 139.577 341.408 140.021 341.948C140.477 342.488 141.083 342.758 141.839 342.758ZM152.87 344.162C151.43 344.162 150.296 343.76 149.468 342.956C148.64 342.14 148.226 341.03 148.226 339.626C148.226 338.726 148.406 337.934 148.766 337.25C149.138 336.554 149.648 336.014 150.296 335.63C150.944 335.246 151.688 335.054 152.528 335.054C153.74 335.054 154.694 335.444 155.39 336.224C156.086 336.992 156.434 338.054 156.434 339.41C156.434 339.818 156.194 340.022 155.714 340.022H149.99C150.122 341.846 151.088 342.758 152.888 342.758C153.248 342.758 153.626 342.716 154.022 342.632C154.418 342.536 154.802 342.368 155.174 342.128C155.426 341.984 155.642 341.936 155.822 341.984C156.014 342.02 156.152 342.122 156.236 342.29C156.32 342.446 156.332 342.626 156.272 342.83C156.224 343.022 156.086 343.19 155.858 343.334C155.45 343.61 154.97 343.82 154.418 343.964C153.878 344.096 153.362 344.162 152.87 344.162ZM152.6 336.332C151.844 336.332 151.244 336.566 150.8 337.034C150.356 337.502 150.086 338.126 149.99 338.906H154.904C154.868 338.09 154.652 337.46 154.256 337.016C153.86 336.56 153.308 336.332 152.6 336.332ZM159.874 344.126C159.262 344.126 158.956 343.82 158.956 343.208V336.008C158.956 335.396 159.25 335.09 159.838 335.09C160.426 335.09 160.72 335.396 160.72 336.008V336.782C160.96 336.242 161.32 335.828 161.8 335.54C162.292 335.252 162.886 335.084 163.582 335.036C164.026 335 164.266 335.24 164.302 335.756C164.35 336.284 164.092 336.572 163.528 336.62L163.186 336.656C161.59 336.812 160.792 337.634 160.792 339.122V343.208C160.792 343.82 160.486 344.126 159.874 344.126ZM167.11 333.254C166.75 333.254 166.468 333.164 166.264 332.984C166.072 332.804 165.976 332.552 165.976 332.228C165.976 331.544 166.354 331.202 167.11 331.202C167.866 331.202 168.244 331.544 168.244 332.228C168.244 332.912 167.866 333.254 167.11 333.254ZM167.11 344.108C166.51 344.108 166.21 343.778 166.21 343.118V336.098C166.21 335.45 166.51 335.126 167.11 335.126C167.722 335.126 168.028 335.45 168.028 336.098V343.118C168.028 343.778 167.722 344.108 167.11 344.108ZM175.249 344.162C173.809 344.162 172.675 343.76 171.847 342.956C171.019 342.14 170.605 341.03 170.605 339.626C170.605 338.726 170.785 337.934 171.145 337.25C171.517 336.554 172.027 336.014 172.675 335.63C173.323 335.246 174.067 335.054 174.907 335.054C176.119 335.054 177.073 335.444 177.769 336.224C178.465 336.992 178.813 338.054 178.813 339.41C178.813 339.818 178.573 340.022 178.093 340.022H172.369C172.501 341.846 173.467 342.758 175.267 342.758C175.627 342.758 176.005 342.716 176.401 342.632C176.797 342.536 177.181 342.368 177.553 342.128C177.805 341.984 178.021 341.936 178.201 341.984C178.393 342.02 178.531 342.122 178.615 342.29C178.699 342.446 178.711 342.626 178.651 342.83C178.603 343.022 178.465 343.19 178.237 343.334C177.829 343.61 177.349 343.82 176.797 343.964C176.257 344.096 175.741 344.162 175.249 344.162ZM174.979 336.332C174.223 336.332 173.623 336.566 173.179 337.034C172.735 337.502 172.465 338.126 172.369 338.906H177.283C177.247 338.09 177.031 337.46 176.635 337.016C176.239 336.56 175.687 336.332 174.979 336.332ZM182.235 344.126C181.635 344.126 181.335 343.82 181.335 343.208V336.008C181.335 335.396 181.629 335.09 182.217 335.09C182.805 335.09 183.099 335.396 183.099 336.008V336.674C183.399 336.146 183.807 335.744 184.323 335.468C184.851 335.192 185.439 335.054 186.087 335.054C188.163 335.054 189.201 336.23 189.201 338.582V343.208C189.201 343.82 188.901 344.126 188.301 344.126C187.689 344.126 187.383 343.82 187.383 343.208V338.69C187.383 337.934 187.233 337.382 186.933 337.034C186.645 336.686 186.189 336.512 185.565 336.512C184.833 336.512 184.245 336.746 183.801 337.214C183.369 337.67 183.153 338.276 183.153 339.032V343.208C183.153 343.82 182.847 344.126 182.235 344.126ZM196.116 344.162C195.216 344.162 194.436 343.976 193.776 343.604C193.128 343.22 192.624 342.686 192.264 342.002C191.904 341.306 191.724 340.49 191.724 339.554C191.724 338.162 192.12 337.064 192.912 336.26C193.704 335.456 194.772 335.054 196.116 335.054C196.536 335.054 196.974 335.12 197.43 335.252C197.898 335.372 198.33 335.576 198.726 335.864C198.918 335.984 199.026 336.14 199.05 336.332C199.086 336.512 199.056 336.686 198.96 336.854C198.876 337.01 198.75 337.118 198.582 337.178C198.414 337.226 198.222 337.19 198.006 337.07C197.718 336.866 197.424 336.722 197.124 336.638C196.824 336.542 196.536 336.494 196.26 336.494C195.408 336.494 194.748 336.764 194.28 337.304C193.824 337.832 193.596 338.588 193.596 339.572C193.596 340.556 193.824 341.33 194.28 341.894C194.748 342.446 195.408 342.722 196.26 342.722C196.536 342.722 196.818 342.68 197.106 342.596C197.406 342.512 197.706 342.368 198.006 342.164C198.222 342.044 198.408 342.014 198.564 342.074C198.732 342.134 198.852 342.248 198.924 342.416C199.008 342.572 199.032 342.746 198.996 342.938C198.972 343.118 198.864 343.268 198.672 343.388C198.288 343.664 197.868 343.862 197.412 343.982C196.968 344.102 196.536 344.162 196.116 344.162ZM205.135 344.162C203.695 344.162 202.561 343.76 201.733 342.956C200.905 342.14 200.491 341.03 200.491 339.626C200.491 338.726 200.671 337.934 201.031 337.25C201.403 336.554 201.913 336.014 202.561 335.63C203.209 335.246 203.953 335.054 204.793 335.054C206.005 335.054 206.959 335.444 207.655 336.224C208.351 336.992 208.699 338.054 208.699 339.41C208.699 339.818 208.459 340.022 207.979 340.022H202.255C202.387 341.846 203.353 342.758 205.153 342.758C205.513 342.758 205.891 342.716 206.287 342.632C206.683 342.536 207.067 342.368 207.439 342.128C207.691 341.984 207.907 341.936 208.087 341.984C208.279 342.02 208.417 342.122 208.501 342.29C208.585 342.446 208.597 342.626 208.537 342.83C208.489 343.022 208.351 343.19 208.123 343.334C207.715 343.61 207.235 343.82 206.683 343.964C206.143 344.096 205.627 344.162 205.135 344.162ZM204.865 336.332C204.109 336.332 203.509 336.566 203.065 337.034C202.621 337.502 202.351 338.126 202.255 338.906H207.169C207.133 338.09 206.917 337.46 206.521 337.016C206.125 336.56 205.573 336.332 204.865 336.332ZM214.569 344.162C213.801 344.162 213.123 343.982 212.535 343.622C211.959 343.25 211.509 342.722 211.185 342.038C210.861 341.354 210.699 340.544 210.699 339.608C210.699 338.672 210.861 337.868 211.185 337.196C211.509 336.512 211.959 335.984 212.535 335.612C213.111 335.24 213.789 335.054 214.569 335.054C215.229 335.054 215.817 335.198 216.333 335.486C216.849 335.774 217.233 336.164 217.485 336.656V332.102C217.485 331.49 217.785 331.184 218.385 331.184C218.997 331.184 219.303 331.49 219.303 332.102V343.208C219.303 343.82 219.003 344.126 218.403 344.126C217.803 344.126 217.503 343.82 217.503 343.208V342.524C217.239 343.028 216.849 343.43 216.333 343.73C215.817 344.018 215.229 344.162 214.569 344.162ZM215.037 342.758C215.781 342.758 216.381 342.488 216.837 341.948C217.293 341.408 217.521 340.628 217.521 339.608C217.521 338.588 217.293 337.814 216.837 337.286C216.381 336.746 215.781 336.476 215.037 336.476C214.281 336.476 213.675 336.746 213.219 337.286C212.763 337.814 212.535 338.588 212.535 339.608C212.535 340.628 212.763 341.408 213.219 341.948C213.675 342.488 214.281 342.758 215.037 342.758Z" fill="black" fill-opacity="0.8"/>
<rect x="20.5" y="297.5" width="261" height="82" rx="41" stroke="#F26440" shape-rendering="crispEdges"/>
</g>
<g filter="url(#filter2_bd_46_110)">
<rect x="297" y="172" width="235" height="83" rx="41.5" fill="white" shape-rendering="crispEdges"/>
<rect x="332" y="197" width="36" height="33" rx="16.5" fill="#F26440" fill-opacity="0.4"/>
<path d="M347.5 216.233L344.207 212.94L342.793 214.354L347.5 219.061L357.207 209.354L355.793 207.94L347.5 216.233Z" fill="#F26440"/>
<path d="M399.164 219.162C397.88 219.162 396.782 218.898 395.87 218.37C394.958 217.842 394.256 217.092 393.764 216.12C393.284 215.136 393.044 213.978 393.044 212.646C393.044 211.314 393.284 210.162 393.764 209.19C394.256 208.218 394.958 207.468 395.87 206.94C396.782 206.412 397.88 206.148 399.164 206.148C399.872 206.148 400.55 206.244 401.198 206.436C401.858 206.628 402.428 206.904 402.908 207.264C403.172 207.432 403.322 207.636 403.358 207.876C403.406 208.104 403.37 208.314 403.25 208.506C403.142 208.686 402.98 208.806 402.764 208.866C402.548 208.926 402.308 208.866 402.044 208.686C401.636 208.386 401.192 208.164 400.712 208.02C400.244 207.876 399.746 207.804 399.218 207.804C397.85 207.804 396.806 208.224 396.086 209.064C395.366 209.904 395.006 211.098 395.006 212.646C395.006 214.194 395.366 215.394 396.086 216.246C396.806 217.086 397.85 217.506 399.218 217.506C399.746 217.506 400.25 217.434 400.73 217.29C401.222 217.146 401.684 216.918 402.116 216.606C402.38 216.438 402.614 216.384 402.818 216.444C403.022 216.492 403.178 216.606 403.286 216.786C403.394 216.966 403.43 217.17 403.394 217.398C403.358 217.614 403.232 217.8 403.016 217.956C402.512 218.352 401.924 218.652 401.252 218.856C400.592 219.06 399.896 219.162 399.164 219.162ZM406.9 219.126C406.288 219.126 405.982 218.82 405.982 218.208V211.008C405.982 210.396 406.276 210.09 406.864 210.09C407.452 210.09 407.746 210.396 407.746 211.008V211.782C407.986 211.242 408.346 210.828 408.826 210.54C409.318 210.252 409.912 210.084 410.608 210.036C411.052 210 411.292 210.24 411.328 210.756C411.376 211.284 411.118 211.572 410.554 211.62L410.212 211.656C408.616 211.812 407.818 212.634 407.818 214.122V218.208C407.818 218.82 407.512 219.126 406.9 219.126ZM417.236 219.162C415.796 219.162 414.662 218.76 413.834 217.956C413.006 217.14 412.592 216.03 412.592 214.626C412.592 213.726 412.772 212.934 413.132 212.25C413.504 211.554 414.014 211.014 414.662 210.63C415.31 210.246 416.054 210.054 416.894 210.054C418.106 210.054 419.06 210.444 419.756 211.224C420.452 211.992 420.8 213.054 420.8 214.41C420.8 214.818 420.56 215.022 420.08 215.022H414.356C414.488 216.846 415.454 217.758 417.254 217.758C417.614 217.758 417.992 217.716 418.388 217.632C418.784 217.536 419.168 217.368 419.54 217.128C419.792 216.984 420.008 216.936 420.188 216.984C420.38 217.02 420.518 217.122 420.602 217.29C420.686 217.446 420.698 217.626 420.638 217.83C420.59 218.022 420.452 218.19 420.224 218.334C419.816 218.61 419.336 218.82 418.784 218.964C418.244 219.096 417.728 219.162 417.236 219.162ZM416.966 211.332C416.21 211.332 415.61 211.566 415.166 212.034C414.722 212.502 414.452 213.126 414.356 213.906H419.27C419.234 213.09 419.018 212.46 418.622 212.016C418.226 211.56 417.674 211.332 416.966 211.332ZM426.67 219.162C425.902 219.162 425.224 218.982 424.636 218.622C424.06 218.25 423.61 217.722 423.286 217.038C422.962 216.354 422.8 215.544 422.8 214.608C422.8 213.672 422.962 212.868 423.286 212.196C423.61 211.512 424.06 210.984 424.636 210.612C425.212 210.24 425.89 210.054 426.67 210.054C427.33 210.054 427.918 210.198 428.434 210.486C428.95 210.774 429.334 211.164 429.586 211.656V207.102C429.586 206.49 429.886 206.184 430.486 206.184C431.098 206.184 431.404 206.49 431.404 207.102V218.208C431.404 218.82 431.104 219.126 430.504 219.126C429.904 219.126 429.604 218.82 429.604 218.208V217.524C429.34 218.028 428.95 218.43 428.434 218.73C427.918 219.018 427.33 219.162 426.67 219.162ZM427.138 217.758C427.882 217.758 428.482 217.488 428.938 216.948C429.394 216.408 429.622 215.628 429.622 214.608C429.622 213.588 429.394 212.814 428.938 212.286C428.482 211.746 427.882 211.476 427.138 211.476C426.382 211.476 425.776 211.746 425.32 212.286C424.864 212.814 424.636 213.588 424.636 214.608C424.636 215.628 424.864 216.408 425.32 216.948C425.776 217.488 426.382 217.758 427.138 217.758ZM435.397 208.254C435.037 208.254 434.755 208.164 434.551 207.984C434.359 207.804 434.263 207.552 434.263 207.228C434.263 206.544 434.641 206.202 435.397 206.202C436.153 206.202 436.531 206.544 436.531 207.228C436.531 207.912 436.153 208.254 435.397 208.254ZM435.397 219.108C434.797 219.108 434.497 218.778 434.497 218.118V211.098C434.497 210.45 434.797 210.126 435.397 210.126C436.009 210.126 436.315 210.45 436.315 211.098V218.118C436.315 218.778 436.009 219.108 435.397 219.108ZM444.13 219.162C443.47 219.162 442.882 219.018 442.366 218.73C441.85 218.43 441.46 218.028 441.196 217.524V218.208C441.196 218.82 440.902 219.126 440.314 219.126C439.714 219.126 439.414 218.82 439.414 218.208V207.102C439.414 206.49 439.714 206.184 440.314 206.184C440.926 206.184 441.232 206.49 441.232 207.102V211.638C441.496 211.158 441.88 210.774 442.384 210.486C442.9 210.198 443.482 210.054 444.13 210.054C444.91 210.054 445.588 210.24 446.164 210.612C446.752 210.984 447.202 211.512 447.514 212.196C447.838 212.868 448 213.672 448 214.608C448 215.544 447.838 216.354 447.514 217.038C447.202 217.722 446.752 218.25 446.164 218.622C445.588 218.982 444.91 219.162 444.13 219.162ZM443.68 217.758C444.436 217.758 445.036 217.488 445.48 216.948C445.936 216.408 446.164 215.628 446.164 214.608C446.164 213.588 445.936 212.814 445.48 212.286C445.036 211.746 444.436 211.476 443.68 211.476C442.924 211.476 442.318 211.746 441.862 212.286C441.418 212.814 441.196 213.588 441.196 214.608C441.196 215.628 441.418 216.408 441.862 216.948C442.318 217.488 442.924 217.758 443.68 217.758ZM453.414 219.162C452.478 219.162 451.77 218.892 451.29 218.352C450.822 217.812 450.588 217.02 450.588 215.976V207.102C450.588 206.49 450.888 206.184 451.488 206.184C452.1 206.184 452.406 206.49 452.406 207.102V215.868C452.406 217.056 452.886 217.65 453.846 217.65C453.954 217.65 454.05 217.644 454.134 217.632C454.218 217.62 454.302 217.614 454.386 217.614C454.53 217.602 454.632 217.644 454.692 217.74C454.752 217.824 454.782 218.004 454.782 218.28C454.782 218.772 454.554 219.054 454.098 219.126C453.978 219.138 453.858 219.144 453.738 219.144C453.63 219.156 453.522 219.162 453.414 219.162ZM460.664 219.162C459.224 219.162 458.09 218.76 457.262 217.956C456.434 217.14 456.02 216.03 456.02 214.626C456.02 213.726 456.2 212.934 456.56 212.25C456.932 211.554 457.442 211.014 458.09 210.63C458.738 210.246 459.482 210.054 460.322 210.054C461.534 210.054 462.488 210.444 463.184 211.224C463.88 211.992 464.228 213.054 464.228 214.41C464.228 214.818 463.988 215.022 463.508 215.022H457.784C457.916 216.846 458.882 217.758 460.682 217.758C461.042 217.758 461.42 217.716 461.816 217.632C462.212 217.536 462.596 217.368 462.968 217.128C463.22 216.984 463.436 216.936 463.616 216.984C463.808 217.02 463.946 217.122 464.03 217.29C464.114 217.446 464.126 217.626 464.066 217.83C464.018 218.022 463.88 218.19 463.652 218.334C463.244 218.61 462.764 218.82 462.212 218.964C461.672 219.096 461.156 219.162 460.664 219.162ZM460.394 211.332C459.638 211.332 459.038 211.566 458.594 212.034C458.15 212.502 457.88 213.126 457.784 213.906H462.698C462.662 213.09 462.446 212.46 462.05 212.016C461.654 211.56 461.102 211.332 460.394 211.332Z" fill="black" fill-opacity="0.8"/>
<rect x="297.5" y="172.5" width="234" height="82" rx="41" stroke="#F26440" shape-rendering="crispEdges"/>
</g>
<circle cx="414" cy="68" r="15" fill="#F26440"/>
<circle cx="372" cy="338" r="15" fill="#F26440"/>
<circle cx="100" cy="193" r="15" fill="#F26440"/>
<defs>
<filter id="filter0_bd_46_110" x="11" y="-14" width="301" height="143" filterUnits="userSpaceOnUse" color-interpolation-filters="sRGB">
<feFlood flood-opacity="0" result="BackgroundImageFix"/>
<feGaussianBlur in="BackgroundImageFix" stdDeviation="15"/>
<feComposite in2="SourceAlpha" operator="in" result="effect1_backgroundBlur_46_110"/>
<feColorMatrix in="SourceAlpha" type="matrix" values="0 0 0 0 0 0 0 0 0 0 0 0 0 0 0 0 0 0 127 0" result="hardAlpha"/>
<feOffset dy="4"/>
<feGaussianBlur stdDeviation="10"/>
<feComposite in2="hardAlpha" operator="out"/>
<feColorMatrix type="matrix" values="0 0 0 0 0 0 0 0 0 0 0 0 0 0 0 0 0 0 0.15 0"/>
<feBlend mode="normal" in2="effect1_backgroundBlur_46_110" result="effect2_dropShadow_46_110"/>
<feBlend mode="normal" in="SourceGraphic" in2="effect2_dropShadow_46_110" result="shape"/>
</filter>
<filter id="filter1_bd_46_110" x="-10" y="267" width="322" height="143" filterUnits="userSpaceOnUse" color-interpolation-filters="sRGB">
<feFlood flood-opacity="0" result="BackgroundImageFix"/>
<feGaussianBlur in="BackgroundImageFix" stdDeviation="15"/>
<feComposite in2="SourceAlpha" operator="in" result="effect1_backgroundBlur_46_110"/>
<feColorMatrix in="SourceAlpha" type="matrix" values="0 0 0 0 0 0 0 0 0 0 0 0 0 0 0 0 0 0 127 0" result="hardAlpha"/>
<feOffset dy="4"/>
<feGaussianBlur stdDeviation="10"/>
<feComposite in2="hardAlpha" operator="out"/>
<feColorMatrix type="matrix" values="0 0 0 0 0 0 0 0 0 0 0 0 0 0 0 0 0 0 0.15 0"/>
<feBlend mode="normal" in2="effect1_backgroundBlur_46_110" result="effect2_dropShadow_46_110"/>
<feBlend mode="normal" in="SourceGraphic" in2="effect2_dropShadow_46_110" result="shape"/>
</filter>
<filter id="filter2_bd_46_110" x="267" y="142" width="295" height="143" filterUnits="userSpaceOnUse" color-interpolation-filters="sRGB">
<feFlood flood-opacity="0" result="BackgroundImageFix"/>
<feGaussianBlur in="BackgroundImageFix" stdDeviation="15"/>
<feComposite in2="SourceAlpha" operator="in" result="effect1_backgroundBlur_46_110"/>
<feColorMatrix in="SourceAlpha" type="matrix" values="0 0 0 0 0 0 0 0 0 0 0 0 0 0 0 0 0 0 127 0" result="hardAlpha"/>
<feOffset dy="4"/>
<feGaussianBlur stdDeviation="10"/>
<feComposite in2="hardAlpha" operator="out"/>
<feColorMatrix type="matrix" values="0 0 0 0 0 0 0 0 0 0 0 0 0 0 0 0 0 0 0.15 0"/>
<feBlend mode="normal" in2="effect1_backgroundBlur_46_110" result="effect2_dropShadow_46_110"/>
<feBlend mode="normal" in="SourceGraphic" in2="effect2_dropShadow_46_110" result="shape"/>
</filter>
</defs>
</svg>
