<svg width="15" height="14" viewBox="0 0 15 14" fill="none" xmlns="http://www.w3.org/2000/svg">
<path d="M7.00312 3.41058C5.01629 3.41058 3.4137 5.01317 3.4137 7C3.4137 8.98683 5.01629 10.5894 7.00312 10.5894C8.98996 10.5894 10.5925 8.98683 10.5925 7C10.5925 5.01317 8.98996 3.41058 7.00312 3.41058ZM7.00312 9.33359C5.71918 9.33359 4.66953 8.28707 4.66953 7C4.66953 5.71293 5.71605 4.66641 7.00312 4.66641C8.29019 4.66641 9.33672 5.71293 9.33672 7C9.33672 8.28707 8.28707 9.33359 7.00312 9.33359ZM11.5766 3.26375C11.5766 3.72922 11.2017 4.10097 10.7394 4.10097C10.2739 4.10097 9.90215 3.7261 9.90215 3.26375C9.90215 2.80141 10.277 2.42653 10.7394 2.42653C11.2017 2.42653 11.5766 2.80141 11.5766 3.26375ZM13.9539 4.11347C13.9008 2.99197 13.6447 1.99855 12.8231 1.18007C12.0046 0.361598 11.0112 0.105433 9.88966 0.0492023C8.7338 -0.0164008 5.26933 -0.0164008 4.11347 0.0492023C2.99509 0.102309 2.00167 0.358474 1.18007 1.17695C0.358474 1.99543 0.105433 2.98884 0.0492023 4.11034C-0.0164008 5.26621 -0.0164008 8.73067 0.0492023 9.88653C0.102309 11.008 0.358474 12.0015 1.18007 12.8199C2.00167 13.6384 2.99197 13.8946 4.11347 13.9508C5.26933 14.0164 8.7338 14.0164 9.88966 13.9508C11.0112 13.8977 12.0046 13.6415 12.8231 12.8199C13.6415 12.0015 13.8977 11.008 13.9539 9.88653C14.0195 8.73067 14.0195 5.26933 13.9539 4.11347ZM12.4607 11.1267C12.217 11.739 11.7453 12.2108 11.1299 12.4575C10.2083 12.8231 8.02153 12.7387 7.00312 12.7387C5.98472 12.7387 3.79482 12.8199 2.87638 12.4575C2.26409 12.2139 1.79237 11.7422 1.54558 11.1267C1.18007 10.2052 1.26442 8.01841 1.26442 7C1.26442 5.98159 1.1832 3.7917 1.54558 2.87326C1.78924 2.26096 2.26096 1.78924 2.87638 1.54245C3.79795 1.17695 5.98472 1.2613 7.00312 1.2613C8.02153 1.2613 10.2114 1.18007 11.1299 1.54245C11.7422 1.78612 12.2139 2.25784 12.4607 2.87326C12.8262 3.79482 12.7418 5.98159 12.7418 7C12.7418 8.01841 12.8262 10.2083 12.4607 11.1267Z" fill="white"/>
</svg>
