<svg width="14" height="14" viewBox="0 0 14 14" fill="none" xmlns="http://www.w3.org/2000/svg">
<path d="M3.13382 14H0.231255V4.65292H3.13382V14ZM1.68098 3.37789C0.752829 3.37789 0 2.60912 0 1.68097C6.64327e-09 1.23515 0.177102 0.80759 0.492346 0.492346C0.80759 0.177102 1.23515 0 1.68098 0C2.1268 0 2.55436 0.177102 2.8696 0.492346C3.18485 0.80759 3.36195 1.23515 3.36195 1.68097C3.36195 2.60912 2.60881 3.37789 1.68098 3.37789ZM13.9972 14H11.1009V9.4499C11.1009 8.3655 11.079 6.97484 9.59178 6.97484C8.08268 6.97484 7.85143 8.15299 7.85143 9.37177V14H4.95199V4.65292H7.7358V5.92794H7.77642C8.16393 5.19355 9.11052 4.41854 10.5227 4.41854C13.4603 4.41854 14.0003 6.35295 14.0003 8.86551V14H13.9972Z" fill="white"/>
</svg>
