<svg width="183" height="51" viewBox="0 0 183 51" fill="none" xmlns="http://www.w3.org/2000/svg">
<path d="M28.0761 0C25.6259 0 23.5123 1.41247 22.4899 3.46744C22.4899 3.46489 22.4874 3.46489 22.4874 3.46234C21.901 4.71929 19.8817 8.6278 15.2593 10.9479C11.6516 12.7607 8.30402 12.6766 6.83035 12.5491C6.83035 12.5516 6.8329 12.5516 6.8329 12.5542C6.66718 12.5414 6.50145 12.5287 6.33063 12.5287C2.83514 12.5287 0 15.3638 0 18.8593C0 22.3548 2.83514 25.1899 6.33063 25.1899C8.82413 25.1899 10.976 23.7443 12.006 21.6486C12.0086 21.6511 12.0086 21.6537 12.0111 21.6562C12.6613 20.3432 14.5403 16.9905 18.5712 14.6627C22.1763 12.5797 25.6412 12.3936 27.4234 12.4522C27.6376 12.4751 27.8568 12.4879 28.0761 12.4879C31.5231 12.4879 34.32 9.69354 34.32 6.24394C34.32 2.7969 31.5231 0 28.0761 0Z" fill="url(#paint0_linear_27_28)"/>
<path d="M6.49634 49.9974C10.0828 49.9974 12.9901 47.0901 12.9901 43.5036C12.9901 39.9172 10.0828 37.0098 6.49634 37.0098C2.90991 37.0098 0.00253296 39.9172 0.00253296 43.5036C0.00253296 47.0901 2.90991 49.9974 6.49634 49.9974Z" fill="url(#paint1_linear_27_28)"/>
<path d="M28.0684 24.8101C30.5186 24.8101 32.6322 26.2251 33.6546 28.2775C33.6546 28.2749 33.6571 28.2749 33.6571 28.2724C34.2435 29.5293 36.2628 33.4379 40.8852 35.758C44.4929 37.5708 47.8405 37.4866 49.3142 37.3591C49.3142 37.3617 49.3116 37.3617 49.3116 37.3642C49.4773 37.3515 49.6431 37.3387 49.8139 37.3387C53.3094 37.3387 56.1445 40.1739 56.1445 43.6694C56.1445 47.1649 53.3094 50 49.8139 50C47.3204 50 45.1685 48.5544 44.1385 46.4586C44.1359 46.4612 44.136 46.4637 44.1334 46.4663C43.4833 45.1532 41.6042 41.8005 37.5733 39.4727C33.9682 37.3897 30.5033 37.2036 28.7211 37.2623C28.507 37.2852 28.2877 37.2979 28.0684 37.2979C24.6214 37.2979 21.8245 34.5036 21.8245 31.054C21.827 27.607 24.6214 24.8101 28.0684 24.8101Z" fill="url(#paint2_linear_27_28)"/>
<path d="M23.8846 1.62408C23.214 2.22834 22.6735 2.97281 22.3166 3.81673C21.6052 5.2445 19.7593 8.39324 16.0165 10.5425L18.2882 14.8361C18.3826 14.7774 18.4743 14.7188 18.5712 14.6627C22.1712 12.5822 25.631 12.3961 27.4158 12.4522C27.4413 12.4547 27.4667 12.4547 27.4922 12.4573C27.6809 12.4751 27.8721 12.4853 28.0634 12.4853C28.0659 12.4853 28.0685 12.4853 28.071 12.4853H28.0736H28.0761C28.0786 12.4853 28.0812 12.4853 28.0837 12.4853C28.2775 12.4853 28.4662 12.4751 28.6549 12.4573C28.6804 12.4547 28.7058 12.4547 28.7313 12.4522C28.92 12.4471 29.1342 12.4445 29.3611 12.4445C27.5356 8.83687 25.7101 5.23175 23.8846 1.62408Z" fill="url(#paint3_linear_27_28)"/>
<path d="M28.0684 0C30.5186 0 32.6322 1.41247 33.6546 3.46744C33.6546 3.46489 33.6571 3.46489 33.6571 3.46234C34.2435 4.71929 36.2628 8.6278 40.8852 10.9479C44.4929 12.7607 47.8405 12.6766 49.3142 12.5491C49.3142 12.5516 49.3116 12.5516 49.3116 12.5542C49.4773 12.5414 49.6431 12.5287 49.8139 12.5287C53.3094 12.5287 56.1445 15.3638 56.1445 18.8593C56.1445 22.3548 53.3094 25.1899 49.8139 25.1899C47.3204 25.1899 45.1685 23.7443 44.1385 21.6486C44.1359 21.6511 44.136 21.6537 44.1334 21.6562C43.4833 20.3432 41.6042 16.9905 37.5733 14.6627C33.9682 12.5797 30.5033 12.3936 28.7211 12.4522C28.507 12.4751 28.2877 12.4879 28.0684 12.4879C24.6214 12.4879 21.8245 9.69354 21.8245 6.24394C21.827 2.7969 24.6214 0 28.0684 0Z" fill="url(#paint4_linear_27_28)"/>
<path d="M77.8222 36.1839C77.1385 36.1839 76.6502 35.9495 76.3572 35.4807C76.0642 35.0119 76.0739 34.4455 76.3865 33.7813L84.1217 16.6408C84.3756 16.0743 84.6784 15.6739 85.03 15.4395C85.4011 15.1856 85.8211 15.0586 86.2899 15.0586C86.7391 15.0586 87.1396 15.1856 87.4912 15.4395C87.8623 15.6739 88.1748 16.0743 88.4288 16.6408L96.1933 33.7813C96.5058 34.465 96.5254 35.0412 96.2519 35.51C95.9784 35.9593 95.5096 36.1839 94.8455 36.1839C94.2986 36.1839 93.8688 36.057 93.5563 35.803C93.2633 35.5296 92.9996 35.1194 92.7652 34.5724L91.3002 31.1736H81.221L79.7853 34.5724C79.5313 35.1389 79.2676 35.5491 78.9942 35.803C78.7207 36.057 78.33 36.1839 77.8222 36.1839ZM86.2313 19.3657L82.5102 28.185H90.011L86.2899 19.3657H86.2313ZM101.296 36.1839C100.045 36.1839 99.4204 35.5393 99.4204 34.2501V17.1975C99.4204 15.9278 100.055 15.293 101.325 15.293H108.386C110.652 15.293 112.4 15.8399 113.631 16.9338C114.862 18.0081 115.477 19.522 115.477 21.4753C115.477 23.0184 115.076 24.2979 114.276 25.3136C113.475 26.3098 112.322 26.9837 110.818 27.3353C111.814 27.6479 112.635 28.3999 113.279 29.5914L115.477 33.6641C115.809 34.2892 115.868 34.8654 115.653 35.3928C115.457 35.9202 114.959 36.1839 114.158 36.1839C113.631 36.1839 113.201 36.0765 112.869 35.8616C112.537 35.6272 112.244 35.2756 111.99 34.8068L109.031 29.357C108.679 28.6929 108.259 28.2534 107.771 28.0385C107.302 27.8041 106.697 27.6869 105.954 27.6869H103.171V34.2501C103.171 35.5393 102.546 36.1839 101.296 36.1839ZM103.171 24.9034H107.742C110.476 24.9034 111.844 23.79 111.844 21.5632C111.844 19.3559 110.476 18.2523 107.742 18.2523H103.171V24.9034ZM128.974 36.2425C126.826 36.2425 124.98 35.8128 123.437 34.9533C121.913 34.0743 120.741 32.8437 119.921 31.2615C119.1 29.6598 118.69 27.7748 118.69 25.6066C118.69 23.4384 119.1 21.5632 119.921 19.981C120.741 18.3988 121.913 17.178 123.437 16.3185C124.98 15.4395 126.826 15 128.974 15C130.049 15 131.103 15.1367 132.139 15.4102C133.174 15.6837 134.082 16.0743 134.864 16.5822C135.372 16.9143 135.674 17.3147 135.772 17.7835C135.87 18.2328 135.811 18.6527 135.596 19.0434C135.381 19.4145 135.059 19.6685 134.629 19.8052C134.2 19.9224 133.721 19.8052 133.194 19.4536C132.588 19.0629 131.934 18.7797 131.23 18.6039C130.527 18.4281 129.814 18.3402 129.092 18.3402C127.001 18.3402 125.41 18.975 124.316 20.2447C123.222 21.4948 122.675 23.2821 122.675 25.6066C122.675 27.9311 123.222 29.7282 124.316 30.9978C125.41 32.2675 127.001 32.9023 129.092 32.9023C129.834 32.9023 130.566 32.8144 131.289 32.6386C132.012 32.4433 132.695 32.1503 133.34 31.7596C133.867 31.4276 134.336 31.3201 134.746 31.4373C135.157 31.5545 135.459 31.7987 135.655 32.1698C135.87 32.5214 135.938 32.9121 135.86 33.3418C135.782 33.7716 135.518 34.1525 135.069 34.4845C134.287 35.051 133.35 35.4905 132.256 35.803C131.182 36.096 130.088 36.2425 128.974 36.2425ZM141.154 36.1839C139.904 36.1839 139.279 35.5393 139.279 34.2501V16.9924C139.279 15.7032 139.904 15.0586 141.154 15.0586C142.404 15.0586 143.029 15.7032 143.029 16.9924V23.9072H153.665V16.9924C153.665 15.7032 154.29 15.0586 155.54 15.0586C156.79 15.0586 157.415 15.7032 157.415 16.9924V34.2501C157.415 35.5393 156.79 36.1839 155.54 36.1839C154.29 36.1839 153.665 35.5393 153.665 34.2501V27.0423H143.029V34.2501C143.029 35.5393 142.404 36.1839 141.154 36.1839ZM163.816 36.1839C162.566 36.1839 161.941 35.5393 161.941 34.2501V16.9924C161.941 15.7032 162.566 15.0586 163.816 15.0586C165.066 15.0586 165.691 15.7032 165.691 16.9924V34.2501C165.691 35.5393 165.066 36.1839 163.816 36.1839Z" fill="#F26440"/>
<path d="M78.1537 49.3809C77.7394 49.3809 77.3818 49.2929 77.081 49.1169C76.7802 48.9353 76.5475 48.6827 76.3829 48.3592C76.224 48.03 76.1445 47.6469 76.1445 47.2099C76.1445 46.5515 76.3233 46.035 76.6809 45.6604C77.0384 45.2801 77.5294 45.09 78.1537 45.09C78.358 45.09 78.5709 45.1241 78.7922 45.1922C79.0136 45.2546 79.2151 45.3596 79.3967 45.5072C79.4932 45.5753 79.5329 45.6604 79.5159 45.7626C79.5045 45.8647 79.4563 45.9414 79.3712 45.9924C79.2917 46.0435 79.198 46.0322 79.0902 45.9584C78.937 45.8449 78.7837 45.7654 78.6305 45.72C78.4829 45.6746 78.3382 45.6519 78.1963 45.6519C77.7649 45.6519 77.4329 45.7881 77.2002 46.0606C76.9675 46.3273 76.8511 46.7133 76.8511 47.2184C76.8511 47.7122 76.9675 48.1038 77.2002 48.3933C77.4329 48.6771 77.7649 48.819 78.1963 48.819C78.3382 48.819 78.4829 48.7963 78.6305 48.7508C78.7837 48.7054 78.937 48.626 79.0902 48.5125C79.198 48.4387 79.2917 48.4302 79.3712 48.4869C79.4506 48.538 79.4932 48.6146 79.4989 48.7168C79.5102 48.819 79.4705 48.9013 79.3797 48.9637C79.198 49.1113 78.9994 49.2191 78.7837 49.2872C78.568 49.3496 78.358 49.3809 78.1537 49.3809ZM80.6898 49.3638C80.4571 49.3638 80.3408 49.2446 80.3408 49.0063V45.4561C80.3408 45.2234 80.4515 45.107 80.6728 45.107C80.8998 45.107 81.0133 45.2234 81.0133 45.4561V45.9073C81.1269 45.6462 81.3028 45.4476 81.5412 45.3114C81.7796 45.1695 82.0634 45.0928 82.3925 45.0815C82.5742 45.0645 82.6707 45.1553 82.682 45.3539C82.699 45.5526 82.5969 45.6632 82.3755 45.686L82.2393 45.703C81.8477 45.737 81.5497 45.8619 81.3454 46.0776C81.1411 46.2876 81.0389 46.577 81.0389 46.946V49.0063C81.0389 49.2446 80.9225 49.3638 80.6898 49.3638ZM85.2067 49.3809C84.5539 49.3809 84.0375 49.1907 83.6572 48.8104C83.2769 48.4245 83.0868 47.9023 83.0868 47.2439C83.0868 46.8183 83.1719 46.4437 83.3422 46.1201C83.5124 45.791 83.7452 45.5384 84.0403 45.3624C84.3411 45.1808 84.6873 45.09 85.079 45.09C85.6408 45.09 86.0807 45.2716 86.3986 45.6349C86.7164 45.9924 86.8753 46.4862 86.8753 47.1162C86.8753 47.2922 86.776 47.3802 86.5773 47.3802H83.7593C83.782 47.8512 83.9183 48.2117 84.168 48.4614C84.4177 48.7054 84.7639 48.8275 85.2067 48.8275C85.394 48.8275 85.5841 48.8048 85.7771 48.7594C85.97 48.7083 86.1573 48.6203 86.339 48.4954C86.4695 48.4103 86.5773 48.3933 86.6625 48.4444C86.7533 48.4954 86.7987 48.5749 86.7987 48.6827C86.8044 48.7849 86.7476 48.8757 86.6284 48.9552C86.4411 49.0914 86.2169 49.1964 85.9559 49.2702C85.7004 49.344 85.4507 49.3809 85.2067 49.3809ZM85.096 45.6008C84.7044 45.6008 84.395 45.7228 84.168 45.9669C83.941 46.211 83.8076 46.5316 83.7679 46.9289H86.2794C86.2623 46.5089 86.1517 46.1826 85.9473 45.9499C85.7487 45.7172 85.4649 45.6008 85.096 45.6008ZM89.1759 49.3809C88.8921 49.3809 88.6367 49.3269 88.4097 49.2191C88.1883 49.1056 88.0124 48.9523 87.8818 48.7594C87.7513 48.5664 87.686 48.3507 87.686 48.1123C87.686 47.8115 87.7626 47.5731 87.9159 47.3972C88.0748 47.2212 88.3331 47.0964 88.6906 47.0226C89.0539 46.9431 89.5477 46.9034 90.172 46.9034H90.4444V46.6395C90.4444 46.2876 90.3706 46.035 90.2231 45.8818C90.0812 45.7228 89.8513 45.6434 89.5335 45.6434C89.3348 45.6434 89.1333 45.6689 88.929 45.72C88.7304 45.7711 88.5232 45.8534 88.3075 45.9669C88.211 46.018 88.1287 46.0293 88.0606 46.001C87.9982 45.9669 87.9528 45.9158 87.9244 45.8477C87.9017 45.7739 87.9017 45.7001 87.9244 45.6264C87.9528 45.5469 88.0095 45.4873 88.0947 45.4476C88.3387 45.3227 88.5828 45.2319 88.8268 45.1751C89.0766 45.1184 89.3121 45.09 89.5335 45.09C90.067 45.09 90.4615 45.2205 90.7169 45.4816C90.9779 45.7427 91.1085 46.1485 91.1085 46.6991V49.0063C91.1085 49.2446 91.0035 49.3638 90.7935 49.3638C90.5721 49.3638 90.4615 49.2446 90.4615 49.0063V48.5891C90.3536 48.8331 90.1862 49.0261 89.9592 49.168C89.7378 49.3099 89.4767 49.3809 89.1759 49.3809ZM89.2866 48.8615C89.6271 48.8615 89.9052 48.7452 90.1209 48.5125C90.3366 48.2741 90.4444 47.9733 90.4444 47.61V47.3546H90.1805C89.7208 47.3546 89.3575 47.3773 89.0908 47.4227C88.8297 47.4625 88.6452 47.5362 88.5374 47.6441C88.4352 47.7462 88.3841 47.8881 88.3841 48.0698C88.3841 48.3025 88.4636 48.4926 88.6225 48.6402C88.7871 48.7877 89.0085 48.8615 89.2866 48.8615ZM94.048 49.3809C93.5599 49.3809 93.1938 49.2531 92.9498 48.9977C92.7057 48.7367 92.5837 48.3621 92.5837 47.8739V45.703H92.0133C91.8146 45.703 91.7153 45.6122 91.7153 45.4305C91.7153 45.2546 91.8146 45.1666 92.0133 45.1666H92.5837V44.1876C92.5837 43.9549 92.7 43.8385 92.9327 43.8385C93.1598 43.8385 93.2733 43.9549 93.2733 44.1876V45.1666H94.346C94.5446 45.1666 94.644 45.2546 94.644 45.4305C94.644 45.6122 94.5446 45.703 94.346 45.703H93.2733V47.8058C93.2733 48.1294 93.3414 48.3762 93.4776 48.5465C93.6138 48.7111 93.8352 48.7934 94.1417 48.7934C94.2495 48.7934 94.3403 48.7821 94.4141 48.7594C94.4879 48.7367 94.5532 48.7253 94.6099 48.7253C94.661 48.7196 94.7036 48.7367 94.7376 48.7764C94.7717 48.8161 94.7887 48.8842 94.7887 48.9807C94.7887 49.0488 94.7745 49.1113 94.7461 49.168C94.7234 49.2248 94.6809 49.2645 94.6184 49.2872C94.5503 49.3099 94.4595 49.3298 94.346 49.3468C94.2382 49.3695 94.1388 49.3809 94.048 49.3809ZM95.7547 44.1705C95.4539 44.1705 95.3035 44.0286 95.3035 43.7449C95.3035 43.4667 95.4539 43.3277 95.7547 43.3277C96.0555 43.3277 96.2059 43.4667 96.2059 43.7449C96.2059 44.0286 96.0555 44.1705 95.7547 44.1705ZM95.7547 49.3468C95.5277 49.3468 95.4142 49.2219 95.4142 48.9722V45.4901C95.4142 45.2461 95.5277 45.1241 95.7547 45.1241C95.9874 45.1241 96.1038 45.2461 96.1038 45.4901V48.9722C96.1038 49.2219 95.9874 49.3468 95.7547 49.3468ZM98.9338 49.3638C98.7352 49.3638 98.5876 49.2531 98.4911 49.0318L97.0183 45.5923C96.9615 45.4618 96.9587 45.3482 97.0098 45.2518C97.0608 45.1553 97.163 45.107 97.3162 45.107C97.4752 45.107 97.5915 45.1978 97.6653 45.3795L98.9509 48.521L100.253 45.3795C100.293 45.2773 100.339 45.2064 100.39 45.1666C100.441 45.1269 100.515 45.107 100.611 45.107C100.742 45.107 100.83 45.1553 100.875 45.2518C100.92 45.3482 100.918 45.4589 100.866 45.5838L99.3765 49.0318C99.2857 49.2531 99.1382 49.3638 98.9338 49.3638ZM103.581 49.3809C102.928 49.3809 102.411 49.1907 102.031 48.8104C101.651 48.4245 101.461 47.9023 101.461 47.2439C101.461 46.8183 101.546 46.4437 101.716 46.1201C101.886 45.791 102.119 45.5384 102.414 45.3624C102.715 45.1808 103.061 45.09 103.453 45.09C104.015 45.09 104.455 45.2716 104.773 45.6349C105.09 45.9924 105.249 46.4862 105.249 47.1162C105.249 47.2922 105.15 47.3802 104.951 47.3802H102.133C102.156 47.8512 102.292 48.2117 102.542 48.4614C102.792 48.7054 103.138 48.8275 103.581 48.8275C103.768 48.8275 103.958 48.8048 104.151 48.7594C104.344 48.7083 104.531 48.6203 104.713 48.4954C104.844 48.4103 104.951 48.3933 105.037 48.4444C105.127 48.4954 105.173 48.5749 105.173 48.6827C105.178 48.7849 105.122 48.8757 105.002 48.9552C104.815 49.0914 104.591 49.1964 104.33 49.2702C104.074 49.344 103.825 49.3809 103.581 49.3809ZM103.47 45.6008C103.078 45.6008 102.769 45.7228 102.542 45.9669C102.315 46.211 102.182 46.5316 102.142 46.9289H104.653C104.636 46.5089 104.526 46.1826 104.321 45.9499C104.123 45.7172 103.839 45.6008 103.47 45.6008ZM106.656 50.1131C106.577 50.2095 106.497 50.2521 106.418 50.2408C106.338 50.2351 106.284 50.1954 106.256 50.1216C106.228 50.0478 106.25 49.9598 106.324 49.8576C106.392 49.7725 106.443 49.6845 106.477 49.5937C106.511 49.5029 106.537 49.4177 106.554 49.3383C106.418 49.3269 106.31 49.2787 106.23 49.1936C106.151 49.1084 106.111 49.0006 106.111 48.87C106.111 48.7338 106.151 48.6231 106.23 48.538C106.315 48.4472 106.426 48.4018 106.562 48.4018C106.71 48.4018 106.826 48.4529 106.911 48.555C106.997 48.6515 107.039 48.7934 107.039 48.9807C107.039 49.1567 107.011 49.344 106.954 49.5426C106.897 49.7413 106.798 49.9314 106.656 50.1131ZM110.72 44.1705C110.419 44.1705 110.269 44.0286 110.269 43.7449C110.269 43.4667 110.419 43.3277 110.72 43.3277C111.021 43.3277 111.171 43.4667 111.171 43.7449C111.171 44.0286 111.021 44.1705 110.72 44.1705ZM110.72 49.3468C110.493 49.3468 110.379 49.2219 110.379 48.9722V45.4901C110.379 45.2461 110.493 45.1241 110.72 45.1241C110.953 45.1241 111.069 45.2461 111.069 45.4901V48.9722C111.069 49.2219 110.953 49.3468 110.72 49.3468ZM112.699 49.3638C112.472 49.3638 112.358 49.2446 112.358 49.0063V45.4561C112.358 45.2234 112.469 45.107 112.69 45.107C112.917 45.107 113.031 45.2234 113.031 45.4561V45.8733C113.167 45.6122 113.36 45.4164 113.61 45.2858C113.859 45.1553 114.14 45.09 114.453 45.09C115.434 45.09 115.925 45.6349 115.925 46.7246V49.0063C115.925 49.2446 115.812 49.3638 115.585 49.3638C115.352 49.3638 115.236 49.2446 115.236 49.0063V46.7672C115.236 46.3812 115.159 46.1003 115.006 45.9243C114.858 45.7427 114.62 45.6519 114.291 45.6519C113.911 45.6519 113.607 45.7711 113.38 46.0095C113.158 46.2422 113.048 46.5543 113.048 46.946V49.0063C113.048 49.2446 112.931 49.3638 112.699 49.3638ZM117.538 49.3638C117.311 49.3638 117.197 49.2446 117.197 49.0063V45.4561C117.197 45.2234 117.308 45.107 117.529 45.107C117.756 45.107 117.87 45.2234 117.87 45.4561V45.8733C118.006 45.6122 118.199 45.4164 118.448 45.2858C118.698 45.1553 118.979 45.09 119.291 45.09C120.273 45.09 120.764 45.6349 120.764 46.7246V49.0063C120.764 49.2446 120.651 49.3638 120.424 49.3638C120.191 49.3638 120.075 49.2446 120.075 49.0063V46.7672C120.075 46.3812 119.998 46.1003 119.845 45.9243C119.697 45.7427 119.459 45.6519 119.13 45.6519C118.749 45.6519 118.446 45.7711 118.219 46.0095C117.997 46.2422 117.887 46.5543 117.887 46.946V49.0063C117.887 49.2446 117.77 49.3638 117.538 49.3638ZM123.756 49.3809C123.353 49.3809 123.003 49.2929 122.708 49.1169C122.413 48.941 122.183 48.6941 122.019 48.3762C121.86 48.0527 121.78 47.6725 121.78 47.2354C121.78 46.7984 121.86 46.421 122.019 46.1031C122.183 45.7796 122.413 45.5299 122.708 45.3539C123.003 45.178 123.353 45.09 123.756 45.09C124.153 45.09 124.499 45.178 124.794 45.3539C125.095 45.5299 125.325 45.7796 125.484 46.1031C125.648 46.421 125.731 46.7984 125.731 47.2354C125.731 47.6725 125.648 48.0527 125.484 48.3762C125.325 48.6941 125.095 48.941 124.794 49.1169C124.499 49.2929 124.153 49.3809 123.756 49.3809ZM123.756 48.8275C124.141 48.8275 124.451 48.6913 124.683 48.4188C124.916 48.1407 125.033 47.7462 125.033 47.2354C125.033 46.7189 124.916 46.3245 124.683 46.052C124.451 45.7796 124.141 45.6434 123.756 45.6434C123.364 45.6434 123.052 45.7796 122.819 46.052C122.592 46.3245 122.478 46.7189 122.478 47.2354C122.478 47.7462 122.592 48.1407 122.819 48.4188C123.052 48.6913 123.364 48.8275 123.756 48.8275ZM128.249 49.3638C128.051 49.3638 127.903 49.2531 127.807 49.0318L126.334 45.5923C126.277 45.4618 126.274 45.3482 126.325 45.2518C126.376 45.1553 126.478 45.107 126.632 45.107C126.791 45.107 126.907 45.1978 126.981 45.3795L128.266 48.521L129.569 45.3795C129.609 45.2773 129.654 45.2064 129.705 45.1666C129.756 45.1269 129.83 45.107 129.926 45.107C130.057 45.107 130.145 45.1553 130.19 45.2518C130.236 45.3482 130.233 45.4589 130.182 45.5838L128.692 49.0318C128.601 49.2531 128.454 49.3638 128.249 49.3638ZM132.309 49.3809C132.025 49.3809 131.77 49.3269 131.543 49.2191C131.322 49.1056 131.146 48.9523 131.015 48.7594C130.885 48.5664 130.819 48.3507 130.819 48.1123C130.819 47.8115 130.896 47.5731 131.049 47.3972C131.208 47.2212 131.466 47.0964 131.824 47.0226C132.187 46.9431 132.681 46.9034 133.305 46.9034H133.578V46.6395C133.578 46.2876 133.504 46.035 133.356 45.8818C133.215 45.7228 132.985 45.6434 132.667 45.6434C132.468 45.6434 132.267 45.6689 132.062 45.72C131.864 45.7711 131.657 45.8534 131.441 45.9669C131.344 46.018 131.262 46.0293 131.194 46.001C131.132 45.9669 131.086 45.9158 131.058 45.8477C131.035 45.7739 131.035 45.7001 131.058 45.6264C131.086 45.5469 131.143 45.4873 131.228 45.4476C131.472 45.3227 131.716 45.2319 131.96 45.1751C132.21 45.1184 132.445 45.09 132.667 45.09C133.2 45.09 133.595 45.2205 133.85 45.4816C134.111 45.7427 134.242 46.1485 134.242 46.6991V49.0063C134.242 49.2446 134.137 49.3638 133.927 49.3638C133.705 49.3638 133.595 49.2446 133.595 49.0063V48.5891C133.487 48.8331 133.32 49.0261 133.093 49.168C132.871 49.3099 132.61 49.3809 132.309 49.3809ZM132.42 48.8615C132.76 48.8615 133.039 48.7452 133.254 48.5125C133.47 48.2741 133.578 47.9733 133.578 47.61V47.3546H133.314C132.854 47.3546 132.491 47.3773 132.224 47.4227C131.963 47.4625 131.779 47.5362 131.671 47.6441C131.569 47.7462 131.517 47.8881 131.517 48.0698C131.517 48.3025 131.597 48.4926 131.756 48.6402C131.92 48.7877 132.142 48.8615 132.42 48.8615ZM137.181 49.3809C136.693 49.3809 136.327 49.2531 136.083 48.9977C135.839 48.7367 135.717 48.3621 135.717 47.8739V45.703H135.147C134.948 45.703 134.849 45.6122 134.849 45.4305C134.849 45.2546 134.948 45.1666 135.147 45.1666H135.717V44.1876C135.717 43.9549 135.833 43.8385 136.066 43.8385C136.293 43.8385 136.407 43.9549 136.407 44.1876V45.1666H137.479C137.678 45.1666 137.777 45.2546 137.777 45.4305C137.777 45.6122 137.678 45.703 137.479 45.703H136.407V47.8058C136.407 48.1294 136.475 48.3762 136.611 48.5465C136.747 48.7111 136.968 48.7934 137.275 48.7934C137.383 48.7934 137.474 48.7821 137.547 48.7594C137.621 48.7367 137.686 48.7253 137.743 48.7253C137.794 48.7196 137.837 48.7367 137.871 48.7764C137.905 48.8161 137.922 48.8842 137.922 48.9807C137.922 49.0488 137.908 49.1113 137.879 49.168C137.857 49.2248 137.814 49.2645 137.752 49.2872C137.684 49.3099 137.593 49.3298 137.479 49.3468C137.371 49.3695 137.272 49.3809 137.181 49.3809ZM138.888 44.1705C138.587 44.1705 138.437 44.0286 138.437 43.7449C138.437 43.4667 138.587 43.3277 138.888 43.3277C139.189 43.3277 139.339 43.4667 139.339 43.7449C139.339 44.0286 139.189 44.1705 138.888 44.1705ZM138.888 49.3468C138.661 49.3468 138.548 49.2219 138.548 48.9722V45.4901C138.548 45.2461 138.661 45.1241 138.888 45.1241C139.121 45.1241 139.237 45.2461 139.237 45.4901V48.9722C139.237 49.2219 139.121 49.3468 138.888 49.3468ZM142.067 49.3638C141.869 49.3638 141.721 49.2531 141.624 49.0318L140.152 45.5923C140.095 45.4618 140.092 45.3482 140.143 45.2518C140.194 45.1553 140.296 45.107 140.45 45.107C140.609 45.107 140.725 45.1978 140.799 45.3795L142.084 48.521L143.387 45.3795C143.427 45.2773 143.472 45.2064 143.523 45.1666C143.574 45.1269 143.648 45.107 143.744 45.107C143.875 45.107 143.963 45.1553 144.008 45.2518C144.054 45.3482 144.051 45.4589 144 45.5838L142.51 49.0318C142.419 49.2531 142.272 49.3638 142.067 49.3638ZM146.714 49.3809C146.061 49.3809 145.545 49.1907 145.165 48.8104C144.784 48.4245 144.594 47.9023 144.594 47.2439C144.594 46.8183 144.679 46.4437 144.85 46.1201C145.02 45.791 145.253 45.5384 145.548 45.3624C145.848 45.1808 146.195 45.09 146.586 45.09C147.148 45.09 147.588 45.2716 147.906 45.6349C148.223 45.9924 148.382 46.4862 148.382 47.1162C148.382 47.2922 148.283 47.3802 148.084 47.3802H145.267C145.289 47.8512 145.426 48.2117 145.675 48.4614C145.925 48.7054 146.271 48.8275 146.714 48.8275C146.901 48.8275 147.091 48.8048 147.284 48.7594C147.477 48.7083 147.664 48.6203 147.846 48.4954C147.977 48.4103 148.084 48.3933 148.17 48.4444C148.26 48.4954 148.306 48.5749 148.306 48.6827C148.311 48.7849 148.255 48.8757 148.135 48.9552C147.948 49.0914 147.724 49.1964 147.463 49.2702C147.207 49.344 146.958 49.3809 146.714 49.3809ZM146.603 45.6008C146.212 45.6008 145.902 45.7228 145.675 45.9669C145.448 46.211 145.315 46.5316 145.275 46.9289H147.786C147.769 46.5089 147.659 46.1826 147.454 45.9499C147.256 45.7172 146.972 45.6008 146.603 45.6008ZM149.789 50.1131C149.71 50.2095 149.63 50.2521 149.551 50.2408C149.471 50.2351 149.417 50.1954 149.389 50.1216C149.361 50.0478 149.383 49.9598 149.457 49.8576C149.525 49.7725 149.576 49.6845 149.61 49.5937C149.644 49.5029 149.67 49.4177 149.687 49.3383C149.551 49.3269 149.443 49.2787 149.364 49.1936C149.284 49.1084 149.244 49.0006 149.244 48.87C149.244 48.7338 149.284 48.6231 149.364 48.538C149.449 48.4472 149.559 48.4018 149.696 48.4018C149.843 48.4018 149.959 48.4529 150.045 48.555C150.13 48.6515 150.172 48.7934 150.172 48.9807C150.172 49.1567 150.144 49.344 150.087 49.5426C150.03 49.7413 149.931 49.9314 149.789 50.1131ZM155.266 49.3809C154.852 49.3809 154.494 49.2929 154.194 49.1169C153.893 48.9353 153.66 48.6827 153.495 48.3592C153.337 48.03 153.257 47.6469 153.257 47.2099C153.257 46.5515 153.436 46.035 153.793 45.6604C154.151 45.2801 154.642 45.09 155.266 45.09C155.471 45.09 155.683 45.1241 155.905 45.1922C156.126 45.2546 156.328 45.3596 156.509 45.5072C156.606 45.5753 156.646 45.6604 156.628 45.7626C156.617 45.8647 156.569 45.9414 156.484 45.9924C156.404 46.0435 156.311 46.0322 156.203 45.9584C156.05 45.8449 155.896 45.7654 155.743 45.72C155.595 45.6746 155.451 45.6519 155.309 45.6519C154.878 45.6519 154.545 45.7881 154.313 46.0606C154.08 46.3273 153.964 46.7133 153.964 47.2184C153.964 47.7122 154.08 48.1038 154.313 48.3933C154.545 48.6771 154.878 48.819 155.309 48.819C155.451 48.819 155.595 48.7963 155.743 48.7508C155.896 48.7054 156.05 48.626 156.203 48.5125C156.311 48.4387 156.404 48.4302 156.484 48.4869C156.563 48.538 156.606 48.6146 156.611 48.7168C156.623 48.819 156.583 48.9013 156.492 48.9637C156.311 49.1113 156.112 49.2191 155.896 49.2872C155.681 49.3496 155.471 49.3809 155.266 49.3809ZM157.803 49.3638C157.57 49.3638 157.454 49.2446 157.454 49.0063V45.4561C157.454 45.2234 157.564 45.107 157.786 45.107C158.013 45.107 158.126 45.2234 158.126 45.4561V45.9073C158.24 45.6462 158.416 45.4476 158.654 45.3114C158.892 45.1695 159.176 45.0928 159.505 45.0815C159.687 45.0645 159.783 45.1553 159.795 45.3539C159.812 45.5526 159.71 45.6632 159.488 45.686L159.352 45.703C158.96 45.737 158.663 45.8619 158.458 46.0776C158.254 46.2876 158.152 46.577 158.152 46.946V49.0063C158.152 49.2446 158.035 49.3638 157.803 49.3638ZM162.32 49.3809C161.667 49.3809 161.151 49.1907 160.77 48.8104C160.39 48.4245 160.2 47.9023 160.2 47.2439C160.2 46.8183 160.285 46.4437 160.455 46.1201C160.626 45.791 160.858 45.5384 161.153 45.3624C161.454 45.1808 161.8 45.09 162.192 45.09C162.754 45.09 163.194 45.2716 163.512 45.6349C163.83 45.9924 163.988 46.4862 163.988 47.1162C163.988 47.2922 163.889 47.3802 163.69 47.3802H160.872C160.895 47.8512 161.031 48.2117 161.281 48.4614C161.531 48.7054 161.877 48.8275 162.32 48.8275C162.507 48.8275 162.697 48.8048 162.89 48.7594C163.083 48.7083 163.271 48.6203 163.452 48.4954C163.583 48.4103 163.691 48.3933 163.776 48.4444C163.866 48.4954 163.912 48.5749 163.912 48.6827C163.918 48.7849 163.861 48.8757 163.742 48.9552C163.554 49.0914 163.33 49.1964 163.069 49.2702C162.814 49.344 162.564 49.3809 162.32 49.3809ZM162.209 45.6008C161.818 45.6008 161.508 45.7228 161.281 45.9669C161.054 46.211 160.921 46.5316 160.881 46.9289H163.393C163.375 46.5089 163.265 46.1826 163.06 45.9499C162.862 45.7172 162.578 45.6008 162.209 45.6008ZM166.561 49.3809C166.192 49.3809 165.869 49.2929 165.59 49.1169C165.318 48.941 165.105 48.6941 164.952 48.3762C164.804 48.0527 164.731 47.6725 164.731 47.2354C164.731 46.7927 164.804 46.4124 164.952 46.0946C165.105 45.7711 165.318 45.5242 165.59 45.3539C165.869 45.178 166.192 45.09 166.561 45.09C166.885 45.09 167.168 45.1609 167.412 45.3028C167.662 45.4447 167.847 45.6405 167.966 45.8903V43.5916C167.966 43.3589 168.082 43.2426 168.315 43.2426C168.542 43.2426 168.655 43.3589 168.655 43.5916V49.0063C168.655 49.2446 168.542 49.3638 168.315 49.3638C168.088 49.3638 167.974 49.2446 167.974 49.0063V48.5635C167.849 48.819 167.662 49.0204 167.412 49.168C167.168 49.3099 166.885 49.3809 166.561 49.3809ZM166.706 48.8275C167.092 48.8275 167.401 48.6913 167.634 48.4188C167.866 48.1407 167.983 47.7462 167.983 47.2354C167.983 46.7189 167.866 46.3245 167.634 46.052C167.401 45.7796 167.092 45.6434 166.706 45.6434C166.314 45.6434 166.002 45.7796 165.769 46.052C165.542 46.3245 165.429 46.7189 165.429 47.2354C165.429 47.7462 165.542 48.1407 165.769 48.4188C166.002 48.6913 166.314 48.8275 166.706 48.8275ZM170.29 44.1705C169.989 44.1705 169.839 44.0286 169.839 43.7449C169.839 43.4667 169.989 43.3277 170.29 43.3277C170.591 43.3277 170.741 43.4667 170.741 43.7449C170.741 44.0286 170.591 44.1705 170.29 44.1705ZM170.29 49.3468C170.063 49.3468 169.949 49.2219 169.949 48.9722V45.4901C169.949 45.2461 170.063 45.1241 170.29 45.1241C170.523 45.1241 170.639 45.2461 170.639 45.4901V48.9722C170.639 49.2219 170.523 49.3468 170.29 49.3468ZM174.022 49.3809C173.699 49.3809 173.412 49.3099 173.163 49.168C172.913 49.0204 172.728 48.819 172.609 48.5635V49.0063C172.609 49.2446 172.496 49.3638 172.269 49.3638C172.042 49.3638 171.928 49.2446 171.928 49.0063V43.5916C171.928 43.3589 172.042 43.2426 172.269 43.2426C172.501 43.2426 172.618 43.3589 172.618 43.5916V45.8818C172.737 45.6377 172.921 45.4447 173.171 45.3028C173.421 45.1609 173.705 45.09 174.022 45.09C174.391 45.09 174.712 45.178 174.984 45.3539C175.263 45.5242 175.475 45.7711 175.623 46.0946C175.776 46.4124 175.853 46.7927 175.853 47.2354C175.853 47.6725 175.776 48.0527 175.623 48.3762C175.475 48.6941 175.263 48.941 174.984 49.1169C174.712 49.2929 174.391 49.3809 174.022 49.3809ZM173.878 48.8275C174.264 48.8275 174.573 48.6913 174.806 48.4188C175.038 48.1407 175.155 47.7462 175.155 47.2354C175.155 46.7189 175.038 46.3245 174.806 46.052C174.573 45.7796 174.264 45.6434 173.878 45.6434C173.492 45.6434 173.182 45.7796 172.95 46.052C172.717 46.3245 172.601 46.7189 172.601 47.2354C172.601 47.7462 172.717 48.1407 172.95 48.4188C173.182 48.6913 173.492 48.8275 173.878 48.8275ZM178.152 49.3809C177.744 49.3809 177.431 49.2588 177.216 49.0148C177 48.765 176.892 48.4046 176.892 47.9335V43.5916C176.892 43.3589 177.006 43.2426 177.233 43.2426C177.465 43.2426 177.582 43.3589 177.582 43.5916V47.8825C177.582 48.4898 177.823 48.7934 178.306 48.7934C178.357 48.7934 178.402 48.7906 178.442 48.7849C178.481 48.7792 178.521 48.7764 178.561 48.7764C178.623 48.7707 178.666 48.7849 178.689 48.819C178.717 48.853 178.731 48.9211 178.731 49.0233C178.731 49.2163 178.635 49.3269 178.442 49.3553C178.396 49.3667 178.348 49.3723 178.297 49.3723C178.246 49.378 178.198 49.3809 178.152 49.3809ZM181.234 49.3809C180.581 49.3809 180.065 49.1907 179.685 48.8104C179.304 48.4245 179.114 47.9023 179.114 47.2439C179.114 46.8183 179.199 46.4437 179.37 46.1201C179.54 45.791 179.773 45.5384 180.068 45.3624C180.369 45.1808 180.715 45.09 181.106 45.09C181.668 45.09 182.108 45.2716 182.426 45.6349C182.744 45.9924 182.903 46.4862 182.903 47.1162C182.903 47.2922 182.804 47.3802 182.605 47.3802H179.787C179.81 47.8512 179.946 48.2117 180.196 48.4614C180.445 48.7054 180.791 48.8275 181.234 48.8275C181.421 48.8275 181.612 48.8048 181.805 48.7594C181.998 48.7083 182.185 48.6203 182.366 48.4954C182.497 48.4103 182.605 48.3933 182.69 48.4444C182.781 48.4954 182.826 48.5749 182.826 48.6827C182.832 48.7849 182.775 48.8757 182.656 48.9552C182.469 49.0914 182.244 49.1964 181.983 49.2702C181.728 49.344 181.478 49.3809 181.234 49.3809ZM181.124 45.6008C180.732 45.6008 180.423 45.7228 180.196 45.9669C179.968 46.211 179.835 46.5316 179.795 46.9289H182.307C182.29 46.5089 182.179 46.1826 181.975 45.9499C181.776 45.7172 181.492 45.6008 181.124 45.6008Z" fill="#F26440"/>
<defs>
<linearGradient id="paint0_linear_27_28" x1="-3.15565" y1="32.8495" x2="37.3669" y2="-7.67302" gradientUnits="userSpaceOnUse">
<stop stop-color="#F26440"/>
<stop offset="0.9566" stop-color="#F69880"/>
</linearGradient>
<linearGradient id="paint1_linear_27_28" x1="6.99805" y1="43.0031" x2="47.5205" y2="2.48065" gradientUnits="userSpaceOnUse">
<stop stop-color="#F26440"/>
<stop offset="0.9566" stop-color="#F69880"/>
</linearGradient>
<linearGradient id="paint2_linear_27_28" x1="20.1799" y1="56.185" x2="60.7023" y2="15.6625" gradientUnits="userSpaceOnUse">
<stop stop-color="#F26440"/>
<stop offset="0.9566" stop-color="#F69880"/>
</linearGradient>
<linearGradient id="paint3_linear_27_28" x1="31.0833" y1="3.98523" x2="18.7454" y2="12.418" gradientUnits="userSpaceOnUse">
<stop stop-color="#DF390F"/>
<stop offset="1" stop-color="#F26440" stop-opacity="0"/>
</linearGradient>
<linearGradient id="paint4_linear_27_28" x1="7.77478" y1="43.7799" x2="48.2973" y2="3.25738" gradientUnits="userSpaceOnUse">
<stop stop-color="#F26440"/>
<stop offset="0.9566" stop-color="#F69880"/>
</linearGradient>
</defs>
</svg>
